<?xml version="1.0" encoding="utf-8"?>
<!-- Generator: Adobe Illustrator 26.2.1, SVG Export Plug-In . SVG Version: 6.00 Build 0)  -->
<svg version="1.1" id="Layer_1" xmlns="http://www.w3.org/2000/svg" xmlns:xlink="http://www.w3.org/1999/xlink" x="0px" y="0px"
	 viewBox="0 0 500 278" style="enable-background:new 0 0 500 278;" xml:space="preserve">
<style type="text/css">
	.st0{fill:#FFFFFF;}
</style>
<g>
	<g>
		<g>
			<g>
				<path d="M48.33,45.01c-2.93-2.51-6.36-4.22-9.83-5.74c-4.84-2.08-10-3.17-15.14-4.24c-5.36-1.16-11.13-1.92-16.5-0.42
					c-12.38,4.43-6.59,22.47,6.04,18.9c4.98-1.66,9.26-6.19,14.69-6.62c4.45-0.38,9.48,0.84,12.12,4.61
					c0.03,0.05,0.36,0.62,0.13,0.46C44.58,57.43,52.76,50.71,48.33,45.01z"/>
				<path class="st0" d="M48.33,45.01c-2.93-2.51-6.36-4.22-9.83-5.74c-4.84-2.08-10-3.17-15.14-4.24
					c-5.36-1.16-11.13-1.92-16.5-0.42c-12.38,4.43-6.59,22.47,6.04,18.9c4.98-1.66,9.26-6.19,14.69-6.62
					c4.45-0.38,9.48,0.84,12.12,4.61c0.03,0.05,0.36,0.62,0.13,0.46C44.58,57.43,52.76,50.71,48.33,45.01z"/>
			</g>
			<g>
				<path d="M39.22,58.48c-6.55-1-13.15,0.51-19.59,1.49c-5.03,1.2-11.46,0.14-14.43,5.58c-2.52,4.36-1.04,9.94,3.32,12.46
					c4.36,2.52,9.94,1.04,12.46-3.32c1.03-1.78,2.26-3.32,3.59-4.71c3.34-3.39,8.86-7.33,13.37-5.95
					C42.4,65.79,43.96,59.03,39.22,58.48z"/>
				<path class="st0" d="M39.22,58.48c-6.55-1-13.15,0.51-19.59,1.49c-5.03,1.2-11.46,0.14-14.43,5.58
					c-2.52,4.36-1.04,9.94,3.32,12.46c4.36,2.52,9.94,1.04,12.46-3.32c1.03-1.78,2.26-3.32,3.59-4.71
					c3.34-3.39,8.86-7.33,13.37-5.95C42.4,65.79,43.96,59.03,39.22,58.48z"/>
			</g>
			<g>
				<path d="M434.5,28.5c-0.48,0.03-2.61,0-3.03,0.24c0,0-0.01-0.05-0.01-0.05c-29.05,8.28-59.19,14.39-89.32,14.01
					c-3.48-6.16-4.15-13.83-2.15-20.61c5.25-9.77-11.62-14.7-12.38-3.56c-0.32,8.51,2.36,17.18,7.57,23.89
					c-60.95-5.97-53.73-40.16-75.33-41.2c-9.21-0.6-13.23,11.75-5.36,16.69c3.42,2.17,16.2,21.74,12.08,28.64
					c-10,16.58,19.69,23.93,18.49,4.53c-0.81-5.32-1.58-10.27-2.41-16.04c25.77,14.59,55.69,17.4,84.6,16.18
					c-20.2,8.1-40.65,14.54-60.71,23.01c-0.58-1.56-0.83-3.19-0.65-4.87c1.25-4.8-3.42-9.53-8.26-8.26
					c-8.71,2.37-4.49,13.03-0.83,18c-9.46,5.18-18.53,11.33-26.68,18.51c30.7-42.91-49.08-61.85-78.12-47.99
					c-1.74-3.35-5.55-5.61-10.66-3.86c-15.78,6.37-31.23,12.12-47.16,17.64c-19.79,6.54-39.46,14.14-59.72,18.99
					c2.15-17.17,5.23-34.41,9.82-51.08c3.19-12.88-15.44-17.53-18.73-4.76c-4.09,18.74-6.07,37.73-7.03,56.83
					c-6.87,1.73-9.76,14.86-0.53,14.77c-0.03,5.73-0.23,11.47,0.17,17.19c-8.76-3.03-16.63,8.34-10.57,15.52
					c3.41,4.38,7.16,8.19,11.18,11.6c0.44,25.26,3.06,50.55,8.52,75.29c1.43,6.54,8.47,10.42,14.76,8.12
					c5.86-2.1,8.9-8.57,6.77-14.42c-6.75-18.71-11.27-38.26-14.11-57.98c20.09,11.41,64.37,25.49,63.88,25.98
					c-30.65,30.65,13.57,31.43,44.31,18.38c17.53-7.45-14.94-17.54-23.21-20.59c19.05-16.94,43.15-29.09,57.56-50.77
					c13.02,37.27,26.98,73.46,62.63,90.67c-66.86-10.57-135.46-2.93-196.73,25.4c-14.32,4.16,1.39,22.21,7.37,8.28
					c65.27-45.97,219.77-26.83,282.11,20.5c29.04,22.67,51.23-31.9,13.53-35.08c-26.17-0.41-50.48-9.69-75.95-14.07
					c37.43-1.39,73.5-18.02,100.16-43.99c27.85-24.31,28.24-77.65-16.54-81.9c-40.5-4.83-78.42,12.52-116.38,23.61
					c8.46-12,20.01-21.88,32.31-30.27c4.95,2.4,23.59,8.11,25.51,0.91c-0.15-1.36-1.37-2.33-2.73-2.18
					c-4.42,0.64-10.39-0.79-15.57-3.57c34.33-24.02,77.21-32.22,118.11-37.25c0,0-0.01-0.05-0.01-0.05
					C447.57,46.55,447.01,28.52,434.5,28.5z M168.27,189.52c0.56,0.21,1.13,0.43,1.7,0.64c-4.93,1.52-20.7,3.27-30.56,2
					c1.57-1.64,9.17-5.21,12.22-7.31c0.67-0.46,1.52-0.58,2.29-0.32C158.72,186.15,163.51,187.8,168.27,189.52z M187.92,140.93
					c-11.29,12.41-24.51,24.55-39.71,32.7c-27.18-9.09-55.71-19.77-75.9-41.01c-1.26-10.99-0.7-22.05,0.29-33.05
					c18.24,1.23,36.43,2.53,54.17,6.47c21.99,4.51,42.51,13.1,60.94,24.8c2.91,1.08,5.56,1.04,7.79,0.26
					C193.2,134.56,190.55,137.85,187.92,140.93z M201.18,114.66c0.05,0.17,0.05,0.35,0.08,0.53
					c-37.23-23.64-85.56-23.14-128.29-24.26c33.47-14.08,70.49-20.47,106.07-27.74c-9.07,20.12,8.89,39.26,26.37,46.11
					C203.89,111.23,201.18,114.66,201.18,114.66z M213.43,102.96c-17.52-11.45-26.09-41.11-1.13-48.75
					c17.18-5.12,47.33,4.58,49.71,24.2c-2.9,14.39-15.91,27.54-31.08,29.15C226.66,102.67,219.55,100.81,213.43,102.96z
					 M329.39,142.73c-0.16,0.05-0.82,0.44-0.3,0.1c-11.42,3.56-4.99,20.03,6.08,14.62c11.65-6.67,17.66-22.29,16.81-35.2
					c77.67-14.31,48.08,41.83,4.59,67.13c-53.38,39.62-115.82,14.71-51.32-43.68c10.43-8.81,22.81-15.85,35.87-20.35
					c-1.52,6.76-5.63,14.04-11.78,17.39C329.35,142.74,329.37,142.73,329.39,142.73z M280.51,136.43
					c16.4-9.05,41.11-18.08,50.62-20.71c-27.82,17.54-73.37,46.14-64.56,84.67c-21.1-23.26-25.58-55.76-32.13-85.66
					c7.07-0.17,14.34-1.97,20.87-5.32C228.45,129.66,246.09,155.42,280.51,136.43z"/>
				<path class="st0" d="M434.5,28.5c-0.48,0.03-2.61,0-3.03,0.24c0,0-0.01-0.05-0.01-0.05c-29.05,8.28-59.19,14.39-89.32,14.01
					c-3.48-6.16-4.15-13.83-2.15-20.61c5.25-9.77-11.62-14.7-12.38-3.56c-0.32,8.51,2.36,17.18,7.57,23.89
					c-60.95-5.97-53.73-40.16-75.33-41.2c-9.21-0.6-13.23,11.75-5.36,16.69c3.42,2.17,16.2,21.74,12.08,28.64
					c-10,16.58,19.69,23.93,18.49,4.53c-0.81-5.32-1.58-10.27-2.41-16.04c25.77,14.59,55.69,17.4,84.6,16.18
					c-20.2,8.1-40.65,14.54-60.71,23.01c-0.58-1.56-0.83-3.19-0.65-4.87c1.25-4.8-3.42-9.53-8.26-8.26
					c-8.71,2.37-4.49,13.03-0.83,18c-9.46,5.18-18.53,11.33-26.68,18.51c30.7-42.91-49.08-61.85-78.12-47.99
					c-1.74-3.35-5.55-5.61-10.66-3.86c-15.78,6.37-31.23,12.12-47.16,17.64c-19.79,6.54-39.46,14.14-59.72,18.99
					c2.15-17.17,5.23-34.41,9.82-51.08c3.19-12.88-15.44-17.53-18.73-4.76c-4.09,18.74-6.07,37.73-7.03,56.83
					c-6.87,1.73-9.76,14.86-0.53,14.77c-0.03,5.73-0.23,11.47,0.17,17.19c-8.76-3.03-16.63,8.34-10.57,15.52
					c3.41,4.38,7.16,8.19,11.18,11.6c0.44,25.26,3.06,50.55,8.52,75.29c1.43,6.54,8.47,10.42,14.76,8.12
					c5.86-2.1,8.9-8.57,6.77-14.42c-6.75-18.71-11.27-38.26-14.11-57.98c20.09,11.41,64.37,25.49,63.88,25.98
					c-30.65,30.65,13.57,31.43,44.31,18.38c17.53-7.45-14.94-17.54-23.21-20.59c19.05-16.94,43.15-29.09,57.56-50.77
					c13.02,37.27,26.98,73.46,62.63,90.67c-66.86-10.57-135.46-2.93-196.73,25.4c-14.32,4.16,1.39,22.21,7.37,8.28
					c65.27-45.97,219.77-26.83,282.11,20.5c29.04,22.67,51.23-31.9,13.53-35.08c-26.17-0.41-50.48-9.69-75.95-14.07
					c37.43-1.39,73.5-18.02,100.16-43.99c27.85-24.31,28.24-77.65-16.54-81.9c-40.5-4.83-78.42,12.52-116.38,23.61
					c8.46-12,20.01-21.88,32.31-30.27c4.95,2.4,23.59,8.11,25.51,0.91c-0.15-1.36-1.37-2.33-2.73-2.18
					c-4.42,0.64-10.39-0.79-15.57-3.57c34.33-24.02,77.21-32.22,118.11-37.25c0,0-0.01-0.05-0.01-0.05
					C447.57,46.55,447.01,28.52,434.5,28.5z M168.27,189.52c0.56,0.21,1.13,0.43,1.7,0.64c-4.93,1.52-20.7,3.27-30.56,2
					c1.57-1.64,9.17-5.21,12.22-7.31c0.67-0.46,1.52-0.58,2.29-0.32C158.72,186.15,163.51,187.8,168.27,189.52z M187.92,140.93
					c-11.29,12.41-24.51,24.55-39.71,32.7c-27.18-9.09-55.71-19.77-75.9-41.01c-1.26-10.99-0.7-22.05,0.29-33.05
					c18.24,1.23,36.43,2.53,54.17,6.47c21.99,4.51,42.51,13.1,60.94,24.8c2.91,1.08,5.56,1.04,7.79,0.26
					C193.2,134.56,190.55,137.85,187.92,140.93z M201.18,114.66c0.05,0.17,0.05,0.35,0.08,0.53
					c-37.23-23.64-85.56-23.14-128.29-24.26c33.47-14.08,70.49-20.47,106.07-27.74c-9.07,20.12,8.89,39.26,26.37,46.11
					C203.89,111.23,201.18,114.66,201.18,114.66z M213.43,102.96c-17.52-11.45-26.09-41.11-1.13-48.75
					c17.18-5.12,47.33,4.58,49.71,24.2c-2.9,14.39-15.91,27.54-31.08,29.15C226.66,102.67,219.55,100.81,213.43,102.96z
					 M329.39,142.73c-0.16,0.05-0.82,0.44-0.3,0.1c-11.42,3.56-4.99,20.03,6.08,14.62c11.65-6.67,17.66-22.29,16.81-35.2
					c77.67-14.31,48.08,41.83,4.59,67.13c-53.38,39.62-115.82,14.71-51.32-43.68c10.43-8.81,22.81-15.85,35.87-20.35
					c-1.52,6.76-5.63,14.04-11.78,17.39C329.35,142.74,329.37,142.73,329.39,142.73z M280.51,136.43
					c16.4-9.05,41.11-18.08,50.62-20.71c-27.82,17.54-73.37,46.14-64.56,84.67c-21.1-23.26-25.58-55.76-32.13-85.66
					c7.07-0.17,14.34-1.97,20.87-5.32C228.45,129.66,246.09,155.42,280.51,136.43z"/>
			</g>
		</g>
		<g>
			<g>
				<path class="st0" d="M48.33,45.01c-2.93-2.51-6.36-4.22-9.83-5.74c-4.84-2.08-10-3.17-15.14-4.24
					c-5.36-1.16-11.13-1.92-16.5-0.42c-12.38,4.43-6.59,22.47,6.04,18.9c4.98-1.66,9.26-6.19,14.69-6.62
					c4.45-0.38,9.48,0.84,12.12,4.61c0.03,0.05,0.36,0.62,0.13,0.46C44.58,57.43,52.76,50.71,48.33,45.01z"/>
				<path class="st0" d="M48.33,45.01c-2.93-2.51-6.36-4.22-9.83-5.74c-4.84-2.08-10-3.17-15.14-4.24
					c-5.36-1.16-11.13-1.92-16.5-0.42c-12.38,4.43-6.59,22.47,6.04,18.9c4.98-1.66,9.26-6.19,14.69-6.62
					c4.45-0.38,9.48,0.84,12.12,4.61c0.03,0.05,0.36,0.62,0.13,0.46C44.58,57.43,52.76,50.71,48.33,45.01z"/>
				<path class="st0" d="M48.33,45.01c-2.93-2.51-6.36-4.22-9.83-5.74c-4.84-2.08-10-3.17-15.14-4.24
					c-5.36-1.16-11.13-1.92-16.5-0.42c-12.38,4.43-6.59,22.47,6.04,18.9c4.98-1.66,9.26-6.19,14.69-6.62
					c4.45-0.38,9.48,0.84,12.12,4.61c0.03,0.05,0.36,0.62,0.13,0.46C44.58,57.43,52.76,50.71,48.33,45.01z"/>
			</g>
			<g>
				<path class="st0" d="M39.22,58.48c-6.55-1-13.15,0.51-19.59,1.49c-5.03,1.2-11.46,0.14-14.43,5.58
					c-2.52,4.36-1.04,9.94,3.32,12.46c4.36,2.52,9.94,1.04,12.46-3.32c1.03-1.78,2.26-3.32,3.59-4.71
					c3.34-3.39,8.86-7.33,13.37-5.95C42.4,65.79,43.96,59.03,39.22,58.48z"/>
				<path class="st0" d="M39.22,58.48c-6.55-1-13.15,0.51-19.59,1.49c-5.03,1.2-11.46,0.14-14.43,5.58
					c-2.52,4.36-1.04,9.94,3.32,12.46c4.36,2.52,9.94,1.04,12.46-3.32c1.03-1.78,2.26-3.32,3.59-4.71
					c3.34-3.39,8.86-7.33,13.37-5.95C42.4,65.79,43.96,59.03,39.22,58.48z"/>
				<path class="st0" d="M39.22,58.48c-6.55-1-13.15,0.51-19.59,1.49c-5.03,1.2-11.46,0.14-14.43,5.58
					c-2.52,4.36-1.04,9.94,3.32,12.46c4.36,2.52,9.94,1.04,12.46-3.32c1.03-1.78,2.26-3.32,3.59-4.71
					c3.34-3.39,8.86-7.33,13.37-5.95C42.4,65.79,43.96,59.03,39.22,58.48z"/>
			</g>
			<g>
				<path class="st0" d="M434.5,28.5c-0.48,0.03-2.61,0-3.03,0.24c0,0-0.01-0.05-0.01-0.05c-29.05,8.28-59.19,14.39-89.32,14.01
					c-3.48-6.16-4.15-13.83-2.15-20.61c5.25-9.77-11.62-14.7-12.38-3.56c-0.32,8.51,2.36,17.18,7.57,23.89
					c-60.95-5.97-53.73-40.16-75.33-41.2c-9.21-0.6-13.23,11.75-5.36,16.69c3.42,2.17,16.2,21.74,12.08,28.64
					c-10,16.58,19.69,23.93,18.49,4.53c-0.81-5.32-1.58-10.27-2.41-16.04c25.77,14.59,55.69,17.4,84.6,16.18
					c-20.2,8.1-40.65,14.54-60.71,23.01c-0.58-1.56-0.83-3.19-0.65-4.87c1.25-4.8-3.42-9.53-8.26-8.26
					c-8.71,2.37-4.49,13.03-0.83,18c-9.46,5.18-18.53,11.33-26.68,18.51c30.7-42.91-49.08-61.85-78.12-47.99
					c-1.74-3.35-5.55-5.61-10.66-3.86c-15.78,6.37-31.23,12.12-47.16,17.64c-19.79,6.54-39.46,14.14-59.72,18.99
					c2.15-17.17,5.23-34.41,9.82-51.08c3.19-12.88-15.44-17.53-18.73-4.76c-4.09,18.74-6.07,37.73-7.03,56.83
					c-6.87,1.73-9.76,14.86-0.53,14.77c-0.03,5.73-0.23,11.47,0.17,17.19c-8.76-3.03-16.63,8.34-10.57,15.52
					c3.41,4.38,7.16,8.19,11.18,11.6c0.44,25.26,3.06,50.55,8.52,75.29c1.43,6.54,8.47,10.42,14.76,8.12
					c5.86-2.1,8.9-8.57,6.77-14.42c-6.75-18.71-11.27-38.26-14.11-57.98c20.09,11.41,64.37,25.49,63.88,25.98
					c-30.65,30.65,13.57,31.43,44.31,18.38c17.53-7.45-14.94-17.54-23.21-20.59c19.05-16.94,43.15-29.09,57.56-50.77
					c13.02,37.27,26.98,73.46,62.63,90.67c-66.86-10.57-135.46-2.93-196.73,25.4c-14.32,4.16,1.39,22.21,7.37,8.28
					c65.27-45.97,219.77-26.83,282.11,20.5c29.04,22.67,51.23-31.9,13.53-35.08c-26.17-0.41-50.48-9.69-75.95-14.07
					c37.43-1.39,73.5-18.02,100.16-43.99c27.85-24.31,28.24-77.65-16.54-81.9c-40.5-4.83-78.42,12.52-116.38,23.61
					c8.46-12,20.01-21.88,32.31-30.27c4.95,2.4,23.59,8.11,25.51,0.91c-0.15-1.36-1.37-2.33-2.73-2.18
					c-4.42,0.64-10.39-0.79-15.57-3.57c34.33-24.02,77.21-32.22,118.11-37.25c0,0-0.01-0.05-0.01-0.05
					C447.57,46.55,447.01,28.52,434.5,28.5z M168.27,189.52c0.56,0.21,1.13,0.43,1.7,0.64c-4.93,1.52-20.7,3.27-30.56,2
					c1.57-1.64,9.17-5.21,12.22-7.31c0.67-0.46,1.52-0.58,2.29-0.32C158.72,186.15,163.51,187.8,168.27,189.52z M187.92,140.93
					c-11.29,12.41-24.51,24.55-39.71,32.7c-27.18-9.09-55.71-19.77-75.9-41.01c-1.26-10.99-0.7-22.05,0.29-33.05
					c18.24,1.23,36.43,2.53,54.17,6.47c21.99,4.51,42.51,13.1,60.94,24.8c2.91,1.08,5.56,1.04,7.79,0.26
					C193.2,134.56,190.55,137.85,187.92,140.93z M201.18,114.66c0.05,0.17,0.05,0.35,0.08,0.53
					c-37.23-23.64-85.56-23.14-128.29-24.26c33.47-14.08,70.49-20.47,106.07-27.74c-9.07,20.12,8.89,39.26,26.37,46.11
					C203.89,111.23,201.18,114.66,201.18,114.66z M213.43,102.96c-17.52-11.45-26.09-41.11-1.13-48.75
					c17.18-5.12,47.33,4.58,49.71,24.2c-2.9,14.39-15.91,27.54-31.08,29.15C226.66,102.67,219.55,100.81,213.43,102.96z
					 M329.39,142.73c-0.16,0.05-0.82,0.44-0.3,0.1c-11.42,3.56-4.99,20.03,6.08,14.62c11.65-6.67,17.66-22.29,16.81-35.2
					c77.67-14.31,48.08,41.83,4.59,67.13c-53.38,39.62-115.82,14.71-51.32-43.68c10.43-8.81,22.81-15.85,35.87-20.35
					c-1.52,6.76-5.63,14.04-11.78,17.39C329.35,142.74,329.37,142.73,329.39,142.73z M280.51,136.43
					c16.4-9.05,41.11-18.08,50.62-20.71c-27.82,17.54-73.37,46.14-64.56,84.67c-21.1-23.26-25.58-55.76-32.13-85.66
					c7.07-0.17,14.34-1.97,20.87-5.32C228.45,129.66,246.09,155.42,280.51,136.43z"/>
				<path class="st0" d="M434.5,28.5c-0.48,0.03-2.61,0-3.03,0.24c0,0-0.01-0.05-0.01-0.05c-29.05,8.28-59.19,14.39-89.32,14.01
					c-3.48-6.16-4.15-13.83-2.15-20.61c5.25-9.77-11.62-14.7-12.38-3.56c-0.32,8.51,2.36,17.18,7.57,23.89
					c-60.95-5.97-53.73-40.16-75.33-41.2c-9.21-0.6-13.23,11.75-5.36,16.69c3.42,2.17,16.2,21.74,12.08,28.64
					c-10,16.58,19.69,23.93,18.49,4.53c-0.81-5.32-1.58-10.27-2.41-16.04c25.77,14.59,55.69,17.4,84.6,16.18
					c-20.2,8.1-40.65,14.54-60.71,23.01c-0.58-1.56-0.83-3.19-0.65-4.87c1.25-4.8-3.42-9.53-8.26-8.26
					c-8.71,2.37-4.49,13.03-0.83,18c-9.46,5.18-18.53,11.33-26.68,18.51c30.7-42.91-49.08-61.85-78.12-47.99
					c-1.74-3.35-5.55-5.61-10.66-3.86c-15.78,6.37-31.23,12.12-47.16,17.64c-19.79,6.54-39.46,14.14-59.72,18.99
					c2.15-17.17,5.23-34.41,9.82-51.08c3.19-12.88-15.44-17.53-18.73-4.76c-4.09,18.74-6.07,37.73-7.03,56.83
					c-6.87,1.73-9.76,14.86-0.53,14.77c-0.03,5.73-0.23,11.47,0.17,17.19c-8.76-3.03-16.63,8.34-10.57,15.52
					c3.41,4.38,7.16,8.19,11.18,11.6c0.44,25.26,3.06,50.55,8.52,75.29c1.43,6.54,8.47,10.42,14.76,8.12
					c5.86-2.1,8.9-8.57,6.77-14.42c-6.75-18.71-11.27-38.26-14.11-57.98c20.09,11.41,64.37,25.49,63.88,25.98
					c-30.65,30.65,13.57,31.43,44.31,18.38c17.53-7.45-14.94-17.54-23.21-20.59c19.05-16.94,43.15-29.09,57.56-50.77
					c13.02,37.27,26.98,73.46,62.63,90.67c-66.86-10.57-135.46-2.93-196.73,25.4c-14.32,4.16,1.39,22.21,7.37,8.28
					c65.27-45.97,219.77-26.83,282.11,20.5c29.04,22.67,51.23-31.9,13.53-35.08c-26.17-0.41-50.48-9.69-75.95-14.07
					c37.43-1.39,73.5-18.02,100.16-43.99c27.85-24.31,28.24-77.65-16.54-81.9c-40.5-4.83-78.42,12.52-116.38,23.61
					c8.46-12,20.01-21.88,32.31-30.27c4.95,2.4,23.59,8.11,25.51,0.91c-0.15-1.36-1.37-2.33-2.73-2.18
					c-4.42,0.64-10.39-0.79-15.57-3.57c34.33-24.02,77.21-32.22,118.11-37.25c0,0-0.01-0.05-0.01-0.05
					C447.57,46.55,447.01,28.52,434.5,28.5z M168.27,189.52c0.56,0.21,1.13,0.43,1.7,0.64c-4.93,1.52-20.7,3.27-30.56,2
					c1.57-1.64,9.17-5.21,12.22-7.31c0.67-0.46,1.52-0.58,2.29-0.32C158.72,186.15,163.51,187.8,168.27,189.52z M187.92,140.93
					c-11.29,12.41-24.51,24.55-39.71,32.7c-27.18-9.09-55.71-19.77-75.9-41.01c-1.26-10.99-0.7-22.05,0.29-33.05
					c18.24,1.23,36.43,2.53,54.17,6.47c21.99,4.51,42.51,13.1,60.94,24.8c2.91,1.08,5.56,1.04,7.79,0.26
					C193.2,134.56,190.55,137.85,187.92,140.93z M201.18,114.66c0.05,0.17,0.05,0.35,0.08,0.53
					c-37.23-23.64-85.56-23.14-128.29-24.26c33.47-14.08,70.49-20.47,106.07-27.74c-9.07,20.12,8.89,39.26,26.37,46.11
					C203.89,111.23,201.18,114.66,201.18,114.66z M213.43,102.96c-17.52-11.45-26.09-41.11-1.13-48.75
					c17.18-5.12,47.33,4.58,49.71,24.2c-2.9,14.39-15.91,27.54-31.08,29.15C226.66,102.67,219.55,100.81,213.43,102.96z
					 M329.39,142.73c-0.16,0.05-0.82,0.44-0.3,0.1c-11.42,3.56-4.99,20.03,6.08,14.62c11.65-6.67,17.66-22.29,16.81-35.2
					c77.67-14.31,48.08,41.83,4.59,67.13c-53.38,39.62-115.82,14.71-51.32-43.68c10.43-8.81,22.81-15.85,35.87-20.35
					c-1.52,6.76-5.63,14.04-11.78,17.39C329.35,142.74,329.37,142.73,329.39,142.73z M280.51,136.43
					c16.4-9.05,41.11-18.08,50.62-20.71c-27.82,17.54-73.37,46.14-64.56,84.67c-21.1-23.26-25.58-55.76-32.13-85.66
					c7.07-0.17,14.34-1.97,20.87-5.32C228.45,129.66,246.09,155.42,280.51,136.43z"/>
				<path class="st0" d="M434.5,28.5c-0.48,0.03-2.61,0-3.03,0.24c0,0-0.01-0.05-0.01-0.05c-29.05,8.28-59.19,14.39-89.32,14.01
					c-3.48-6.16-4.15-13.83-2.15-20.61c5.25-9.77-11.62-14.7-12.38-3.56c-0.32,8.51,2.36,17.18,7.57,23.89
					c-60.95-5.97-53.73-40.16-75.33-41.2c-9.21-0.6-13.23,11.75-5.36,16.69c3.42,2.17,16.2,21.74,12.08,28.64
					c-10,16.58,19.69,23.93,18.49,4.53c-0.81-5.32-1.58-10.27-2.41-16.04c25.77,14.59,55.69,17.4,84.6,16.18
					c-20.2,8.1-40.65,14.54-60.71,23.01c-0.58-1.56-0.83-3.19-0.65-4.87c1.25-4.8-3.42-9.53-8.26-8.26
					c-8.71,2.37-4.49,13.03-0.83,18c-9.46,5.18-18.53,11.33-26.68,18.51c30.7-42.91-49.08-61.85-78.12-47.99
					c-1.74-3.35-5.55-5.61-10.66-3.86c-15.78,6.37-31.23,12.12-47.16,17.64c-19.79,6.54-39.46,14.14-59.72,18.99
					c2.15-17.17,5.23-34.41,9.82-51.08c3.19-12.88-15.44-17.53-18.73-4.76c-4.09,18.74-6.07,37.73-7.03,56.83
					c-6.87,1.73-9.76,14.86-0.53,14.77c-0.03,5.73-0.23,11.47,0.17,17.19c-8.76-3.03-16.63,8.34-10.57,15.52
					c3.41,4.38,7.16,8.19,11.18,11.6c0.44,25.26,3.06,50.55,8.52,75.29c1.43,6.54,8.47,10.42,14.76,8.12
					c5.86-2.1,8.9-8.57,6.77-14.42c-6.75-18.71-11.27-38.26-14.11-57.98c20.09,11.41,64.37,25.49,63.88,25.98
					c-30.65,30.65,13.57,31.43,44.31,18.38c17.53-7.45-14.94-17.54-23.21-20.59c19.05-16.94,43.15-29.09,57.56-50.77
					c13.02,37.27,26.98,73.46,62.63,90.67c-66.86-10.57-135.46-2.93-196.73,25.4c-14.32,4.16,1.39,22.21,7.37,8.28
					c65.27-45.97,219.77-26.83,282.11,20.5c29.04,22.67,51.23-31.9,13.53-35.08c-26.17-0.41-50.48-9.69-75.95-14.07
					c37.43-1.39,73.5-18.02,100.16-43.99c27.85-24.31,28.24-77.65-16.54-81.9c-40.5-4.83-78.42,12.52-116.38,23.61
					c8.46-12,20.01-21.88,32.31-30.27c4.95,2.4,23.59,8.11,25.51,0.91c-0.15-1.36-1.37-2.33-2.73-2.18
					c-4.42,0.64-10.39-0.79-15.57-3.57c34.33-24.02,77.21-32.22,118.11-37.25c0,0-0.01-0.05-0.01-0.05
					C447.57,46.55,447.01,28.52,434.5,28.5z M168.27,189.52c0.56,0.21,1.13,0.43,1.7,0.64c-4.93,1.52-20.7,3.27-30.56,2
					c1.57-1.64,9.17-5.21,12.22-7.31c0.67-0.46,1.52-0.58,2.29-0.32C158.72,186.15,163.51,187.8,168.27,189.52z M187.92,140.93
					c-11.29,12.41-24.51,24.55-39.71,32.7c-27.18-9.09-55.71-19.77-75.9-41.01c-1.26-10.99-0.7-22.05,0.29-33.05
					c18.24,1.23,36.43,2.53,54.17,6.47c21.99,4.51,42.51,13.1,60.94,24.8c2.91,1.08,5.56,1.04,7.79,0.26
					C193.2,134.56,190.55,137.85,187.92,140.93z M201.18,114.66c0.05,0.17,0.05,0.35,0.08,0.53
					c-37.23-23.64-85.56-23.14-128.29-24.26c33.47-14.08,70.49-20.47,106.07-27.74c-9.07,20.12,8.89,39.26,26.37,46.11
					C203.89,111.23,201.18,114.66,201.18,114.66z M213.43,102.96c-17.52-11.45-26.09-41.11-1.13-48.75
					c17.18-5.12,47.33,4.58,49.71,24.2c-2.9,14.39-15.91,27.54-31.08,29.15C226.66,102.67,219.55,100.81,213.43,102.96z
					 M329.39,142.73c-0.16,0.05-0.82,0.44-0.3,0.1c-11.42,3.56-4.99,20.03,6.08,14.62c11.65-6.67,17.66-22.29,16.81-35.2
					c77.67-14.31,48.08,41.83,4.59,67.13c-53.38,39.62-115.82,14.71-51.32-43.68c10.43-8.81,22.81-15.85,35.87-20.35
					c-1.52,6.76-5.63,14.04-11.78,17.39C329.35,142.74,329.37,142.73,329.39,142.73z M280.51,136.43
					c16.4-9.05,41.11-18.08,50.62-20.71c-27.82,17.54-73.37,46.14-64.56,84.67c-21.1-23.26-25.58-55.76-32.13-85.66
					c7.07-0.17,14.34-1.97,20.87-5.32C228.45,129.66,246.09,155.42,280.51,136.43z"/>
			</g>
		</g>
	</g>
	<path class="st0" d="M495.68,89.53c-5.24-0.08-11.75-1.61-17.94-4.33c1.34-2.27,3.03-4.31,5.33-5.95c1.91-1.57,4.37-2.57,6.41-4.09
		c2.73-2.41,2.99-6.57,0.58-9.3c-1.3-1.48-3.12-2.23-4.94-2.23c-1.56,0-3.12,0.55-4.37,1.66c-3.34,2.9-6.47,6.28-8.75,10.16
		c0.04-4.23-0.65-8.48-2.37-12.57c-1.93-3.93-4.56-8.27-9.04-9.62c-0.87-0.27-1.75-0.39-2.62-0.39c-5.5,0-10.42,5.06-9.46,10.74
		c0.73,6.08,3.48,11.44,7.26,16c-2.88-1.22-5.95-1.96-9.28-1.96c-1.27,0-2.57,0.11-3.92,0.33c-5.14,0.29-8.57,5.85-6.26,10.53
		c1.26,2.63,3.88,4.17,6.62,4.17c1.06,0,2.14-0.23,3.16-0.72c1.75-0.86,3.43-1.25,5.17-1.25c1.22,0,2.48,0.19,3.82,0.54
		c-4.39,7.81-9.81,15.21-12.76,20.26c-1.88,3,0.57,6.48,3.6,6.48c0.69,0,1.41-0.18,2.12-0.59c7.55-4.36,13.25-11.22,17.35-18.82
		c0.42-0.78,0.83-1.58,1.22-2.38c0.67,0.34,1.34,0.68,2.01,1.01c0.55,0.5,1.24,0.73,1.93,0.73c1.22,0,2.44-0.73,2.85-2
		c0.27-0.83,0.54-1.66,0.82-2.49c6.52,3.08,13.56,4.91,21.03,5.26c0.02,0,0.04,0,0.06,0C501.32,98.73,501.67,90.02,495.68,89.53z
		 M462.56,75.12c-0.17,2.83-6.75-8.07-5.39-11.02c0.52-1.13,1.44-1.72,2.32-0.84C462.39,66.16,462.8,71.18,462.56,75.12z"/>
</g>
</svg>
